<svg width="64" height="64" viewBox="0 0 64 64" fill="none" xmlns="http://www.w3.org/2000/svg">
  <rect width="64" height="64" rx="16" fill="#FFF8FB"/>
  <path d="M32 8C18.7 8 8 18.7 8 32s10.7 24 24 24 24-10.7 24-24S45.3 8 32 8Zm0 8c8.8 0 16 7.2 16 16s-7.2 16-16 16-16-7.2-16-16 7.2-16 16-16Z" fill="#4B164C"/>
  <path d="M33 18.5c-8 4.6-10.8 11.4-8.5 20.4.7 2.7 2.8 5.5 6.4 8.4 1.4 1.1 3 1.1 4.4 0 3.5-2.9 5.7-5.7 6.4-8.4 2.2-9-.6-15.8-8.7-20.4Z" fill="#EF6F91"/>
  <path d="M32 25c4.4 2.8 5.9 6.6 4.4 11.3-.5 1.6-1.6 3.2-3.3 4.9-1.7-1.7-2.8-3.3-3.3-4.9C28.4 31.6 29.9 27.8 32 25Z" fill="#F6D36F"/>
</svg>
