<svg width="520" height="120" viewBox="0 0 520 120" fill="none" xmlns="http://www.w3.org/2000/svg" role="img" aria-labelledby="title desc">
  <title id="title">Salon Marketing Agency logo</title>
  <desc id="desc">Transparent wordmark for Salon Marketing Agency.</desc>
  <path d="M64 18C39.7 18 20 37.7 20 62s19.7 44 44 44 44-19.7 44-44S88.3 18 64 18Zm0 14c16.6 0 30 13.4 30 30S80.6 92 64 92 34 78.6 34 62s13.4-30 30-30Z" fill="#4B164C"/>
  <path d="M65.5 33.5c-14.4 8.1-19.6 20.4-15.4 36.8 1.2 4.9 5.1 9.9 11.5 15 2.5 2 5.5 2 8 0 6.4-5.1 10.2-10.1 11.5-15 4.1-16.4-1-28.7-15.6-36.8Z" fill="#EF6F91"/>
  <path d="M63.5 45.5c7.9 5.1 10.5 11.9 7.8 20.3-.9 2.8-2.8 5.7-5.8 8.8-3-3.1-5-6-5.9-8.8-2.6-8.4 0-15.2 7.9-20.3Z" fill="#F6D36F"/>
  <text x="128" y="55" fill="#19141D" font-family="Arial, Helvetica, sans-serif" font-size="34" font-weight="800" letter-spacing="0">Salon Marketing</text>
  <text x="130" y="86" fill="#0F8A8A" font-family="Arial, Helvetica, sans-serif" font-size="20" font-weight="700" letter-spacing="3">AGENCY</text>
</svg>
